<svg xmlns="http://www.w3.org/2000/svg" viewBox="0 0 383.48 383.24"><defs><style>.cls-1{fill:#fff;}</style></defs><g id="Calque_2" data-name="Calque 2"><g id="Calque_1-2" data-name="Calque 1"><path d="M0,188.62c3.61-4.88,6.94-10,10.87-14.59,27.83-32.48,59.51-60.36,97.67-80.23,27-14.08,55.59-22.57,86.4-21.91,28.36.62,54.77,8.72,79.68,21.8,42,22,76.35,53.16,105.74,90,4,5.08,4.19,10.52.23,15.47-33.3,41.5-72.19,76.16-121.53,97.62-44.77,19.47-89.74,19.35-134.63.09-38.72-16.62-71-42.17-99.79-72.41-6.36-6.68-12.33-13.73-18.28-20.78A109.75,109.75,0,0,1,0,194.61Zm95.84,2.66c-.11,52.86,42.7,96,95.3,96.15a96,96,0,0,0,96.37-95.88c.08-52.5-42.83-95.6-95.33-95.75C139.09,95.66,96,138.42,95.84,191.28Z"/><path d="M188.68,383.24c-6.79-2.94-9.51-8.07-9.07-15.45.39-6.58,0-13.21.1-19.82.06-7.31,5.13-12.62,11.95-12.62s11.91,5.33,12,12.62c.06,6.61-.29,13.24.09,19.83.43,7.36-2.27,12.5-9.06,15.44Z"/><path class="cls-1" d="M0,374.26a16.38,16.38,0,0,0,9,9H0Z"/><path d="M179.7,23.57c0-3.86-.08-7.73,0-11.6a11.94,11.94,0,0,1,23.88-.2q.24,12.15,0,24.32a11.95,11.95,0,0,1-23.89-.17C179.62,31.8,179.7,27.69,179.7,23.57Z"/><path d="M271.89,363.83a11.18,11.18,0,0,1-9.66-6.4c-3.75-7.17-7.45-14.38-11-21.68a11.91,11.91,0,0,1,21.18-10.9c3.9,7.23,7.68,14.54,11.13,22C287.33,354.9,281.56,363.8,271.89,363.83Z"/><path d="M285,31.75a43.61,43.61,0,0,1-1.9,5.58q-4.92,10.06-10.08,20c-3.45,6.62-10.23,9.08-16.33,6.07s-8.38-10.13-5-16.93c3.49-7,7-14.06,10.68-21a11.82,11.82,0,0,1,13.76-5.69A12.58,12.58,0,0,1,285,31.75Z"/><path d="M133.28,51.92c0,6-3.46,10.73-8.44,12.23s-10.79-.24-13.39-4.94c-4.33-7.84-8.43-15.84-12.12-24-2.4-5.31.38-11.62,5.5-14.39s12.13-1.76,15,3.24c4.78,8.28,8.77,17,13,25.6A6.58,6.58,0,0,1,133.28,51.92Z"/><path d="M111.6,363.82c-9.44,0-15.51-8.44-12.11-16.17,3.5-8,7.55-15.71,11.74-23.35,3-5.41,9.9-7.19,15.36-4.53s8.43,9.46,5.78,15.2c-3.66,7.91-7.69,15.65-11.83,23.31A10.47,10.47,0,0,1,111.6,363.82Z"/><path d="M191.59,268.15c-42.85-.15-76.69-34.37-76.5-77.36.18-41.93,34.8-76,77-75.75s76.41,34.69,76.14,76.65C268,234.3,233.89,268.31,191.59,268.15Zm57.63-76.55a58.25,58.25,0,0,0-4.85-22.88c-4.14-9.39-11.15-10.66-18.27-3.33-4,4.11-8.82,5.58-14.34,4.05-8.68-2.4-12.89-11.62-9-20,1.89-4.06,2.39-7.83-.49-11.56-2.36-3.07-5.72-3.74-9.33-3.83-34.6-.87-62.33,29.5-58.33,63.9,3.5,30.17,29.72,52.68,59.52,51.12C225.06,247.48,249.22,222.27,249.22,191.6Z"/><path d="M181.68,155.07c.54,24,23.49,40.79,47.54,31.55,4.82,16.77-9.83,38.17-29,42.35-22,4.8-42.76-9.35-46.5-31.75C150.61,178.47,164.94,156.86,181.68,155.07Z"/></g></g></svg>