<svg xmlns="http://www.w3.org/2000/svg" viewBox="0 0 383.23 383.3"><g id="Calque_2" data-name="Calque 2"><g id="Calque_1-2" data-name="Calque 1"><path d="M182.62,383.3c-7.77-1-15.58-1.7-23.31-2.95C84.54,368.3,21.72,310.18,5.43,236.13-10.72,162.67,9.2,99.36,64.54,48.56,103.15,13.12,150-2.07,202.34.28a183.13,183.13,0,0,1,70.23,17.66c1.12.53,2.22,1.09,4.65,2.28-6.56,6.14-12.57,11.89-18.79,17.4-.71.63-2.78.2-4-.29a168.1,168.1,0,0,0-64.21-12.18c-79,.34-148.06,58.44-161.9,136.4C12.59,250.09,68.2,333.9,155.87,353.77c88.93,20.17,178.85-37.06,198.22-126.14,7.34-33.73,4.73-66.64-8.24-98.66-1-2.44-.86-3.94,1.27-5.71a103.93,103.93,0,0,0,8.3-8.1c2.58-2.67,5.06-5.44,7.91-8.53,6.2,12.39,10.94,24.45,13.74,37.11,2.35,10.67,3.69,21.58,5.48,32.38.2,1.19.45,2.38.68,3.58v23.2c-.23,1.33-.56,2.64-.66,4-1.14,14.46-3.58,28.72-8.38,42.39q-39.1,111.42-155.52,131.87c-5.73,1-11.56,1.46-17.34,2.17Z"/><path d="M383.23,71.16q-13.91,14.09-27.82,28.16c-4.92,5-9.76,10-14.85,14.78-9.61,9.05-21,12.17-33.83,9-9.07-2.2-18.09-4.61-27.08-7.15a5.46,5.46,0,0,0-6.18,1.65q-37.86,38.08-75.89,76c-4.32,4.32-7.42,4.93-10.17,2s-2-5.68,2.22-9.9q38-38,76-75.89c1.94-1.93,2.43-3.54,1.68-6.17q-3.82-13.47-7.15-27.08c-3.17-13-.07-24.55,9.28-34.09C282.5,29.12,295.81,16,309.07,2.77c4.58-4.56,9.08-3.4,10.75,2.82q5.65,21.11,11.06,42.28a5.47,5.47,0,0,0,4.54,4.5c13.88,3.51,27.75,7.07,41.54,10.91,2.29.64,4.19,2.72,6.27,4.14Z"/><path d="M251.69,48.83c-5.16,11.91-4.87,23.72-1.13,35.67,1.52,4.87,2.32,10,4,14.77,1.39,3.93.33,6.42-3.23,8.47-25.67-17.52-53.85-23.23-84.23-15.95-25.13,6-45.1,20.09-60,41.2C77.83,174.53,84,232,121.46,266.93A103,103,0,0,0,275.6,132c1.86-3.66,4.46-4.61,8.53-3.29,6.27,2,12.72,3.52,19.11,5.16,10.23,2.63,15.88,2.24,31.13-2,21.84,46.08,19.39,125.25-42.5,178.35C233,360.7,143.62,358.88,86.38,305.78,27.89,251.53,19.31,163.34,66.93,99.27,115.43,34,196.55,24,251.69,48.83Z"/><path d="M267,140c24.27,33.83,22.92,87.35-14.69,120.48s-93.24,30.38-127.81-6c-33.22-35-32.93-91.15.67-126.1,34.82-36.22,87.33-34.77,117.38-12.5l-17.92,18c-7.5-2.26-15-5.33-22.88-6.78-36.35-6.75-72.48,21.42-75.34,58.35-2.76,35.63,20.8,65.63,55.84,71.12,39.74,6.23,76.36-26.62,74.79-67a68,68,0,0,0-7.37-28.33c-.51-1-.57-3.05.09-3.75C255.29,151.62,261.06,145.94,267,140Z"/><path d="M217,144.16c-1.61.92-3,1.39-4,2.34-11.24,11.15-22.51,22.28-33.57,33.62a16.59,16.59,0,0,0,.1,23.28,16.81,16.81,0,0,0,23.59.46c.92-.84,1.79-1.73,2.68-2.61q15.6-15.62,31.22-31.21c.87-.87,1.78-1.68,2.72-2.56,10.22,17.87,8.76,48.38-14.53,66.83a54.3,54.3,0,0,1-75.8-76.88C167.87,134.81,197.74,133.3,217,144.16Z"/></g></g></svg>