<?xml version="1.0" encoding="utf-8"?>
<!-- Generator: Adobe Illustrator 24.3.0, SVG Export Plug-In . SVG Version: 6.00 Build 0)  -->
<svg version="1.1" id="Calque_1" xmlns="http://www.w3.org/2000/svg" xmlns:xlink="http://www.w3.org/1999/xlink" x="0px" y="0px"
	 viewBox="0 0 67 28" style="enable-background:new 0 0 67 28;" xml:space="preserve">
<style type="text/css">
	.st0{opacity:0;fill:#4B1D8F;}
	.st1{fill:#4B1D8F;}
	.st2{fill-rule:evenodd;clip-rule:evenodd;fill:url(#SVGID_1_);}
</style>
<g>
	<rect x="-61.3" y="-46" class="st0" width="67" height="28"/>
	<path class="st1" d="M-47.4-29.1l0.7,3.1c-0.1,0.1-0.2,0.2-0.3,0.3c-0.1,0.1-0.5,0.2-1,0.4c-0.6,0.2-1.2,0.3-1.8,0.3
		c-1.1,0-2.1-0.4-2.9-1.1C-53.6-27-54-27.9-54-29v-5.5h-1.6v-3.1h1.6v-3.1h3.2v3.1h3.5v3.1h-3.5v4.4c0,0.5,0.1,0.8,0.4,1.1
		c0.3,0.3,0.5,0.4,0.8,0.4l0.4,0c0.4,0,0.7,0,1-0.1c0.3-0.1,0.5-0.2,0.6-0.3L-47.4-29.1z M-37-37l0.5-0.6h2.7V-25H-37v-0.9
		c-1,0.6-2.1,0.9-3.2,0.9c-1.8,0-3.3-0.6-4.6-1.8c-1.3-1.2-1.9-2.7-1.9-4.4c0-1.7,0.6-3.2,1.9-4.4c1.3-1.2,2.8-1.8,4.6-1.8
		c1.2,0,2.2,0.3,3.2,0.9V-37z M-42.5-29.1c0.6,0.6,1.4,0.9,2.3,0.9c0.9,0,1.7-0.3,2.3-0.9c0.6-0.6,0.9-1.4,0.9-2.2
		c0-0.9-0.3-1.6-0.9-2.2c-0.6-0.6-1.4-0.9-2.3-0.9c-0.9,0-1.7,0.3-2.3,0.9c-0.6,0.6-0.9,1.4-0.9,2.2C-43.4-30.5-43.1-29.7-42.5-29.1
		z M-25.8-37.6c1.8,0,3.3,0.6,4.6,1.8c1.3,1.2,1.9,2.7,1.9,4.4c0,1.7-0.6,3.2-1.9,4.4c-1.3,1.2-2.8,1.8-4.6,1.8
		c-1.2,0-2.2-0.3-3.2-0.9v5.6h-3.2v-17.3h2.7L-29-37v0.2C-28-37.3-27-37.6-25.8-37.6z M-28.1-29.1c0.6,0.6,1.4,0.9,2.3,0.9
		c0.9,0,1.7-0.3,2.3-0.9c0.6-0.6,0.9-1.4,0.9-2.2c0-0.9-0.3-1.6-0.9-2.2c-0.6-0.6-1.4-0.9-2.3-0.9c-0.9,0-1.7,0.3-2.3,0.9
		c-0.6,0.6-0.9,1.4-0.9,2.2C-29-30.5-28.7-29.7-28.1-29.1z M-12-37.6c1.8,0,3.3,0.6,4.6,1.8c1.3,1.2,1.9,2.7,1.9,4.4
		c0,1.7-0.6,3.2-1.9,4.4C-8.7-25.7-10.2-25-12-25c-1.2,0-2.2-0.3-3.2-0.9v5.6h-3.2v-17.3h2.7l0.5,0.6v0.2
		C-14.2-37.3-13.1-37.6-12-37.6z M-14.3-29.1c0.6,0.6,1.4,0.9,2.3,0.9c0.9,0,1.7-0.3,2.3-0.9c0.6-0.6,0.9-1.4,0.9-2.2
		c0-0.9-0.3-1.6-0.9-2.2c-0.6-0.6-1.4-0.9-2.3-0.9c-0.9,0-1.7,0.3-2.3,0.9c-0.6,0.6-0.9,1.4-0.9,2.2C-15.2-30.5-14.9-29.7-14.3-29.1
		z M-1.3-25h-3.2v-12.6h3.2V-25z"/>
	
		<linearGradient id="SVGID_1_" gradientUnits="userSpaceOnUse" x1="-5.5135" y1="71.0747" x2="0" y2="71.0747" gradientTransform="matrix(1 0 0 -1 0 30)">
		<stop  offset="0" style="stop-color:#FFAD03"/>
		<stop  offset="0.651" style="stop-color:#FE8005"/>
		<stop  offset="1" style="stop-color:#FD5308"/>
	</linearGradient>
	<path class="st2" d="M-2.8-43.8c1.5,0,2.8,1.2,2.8,2.7c0,1.5-1.2,2.7-2.8,2.7c-1.5,0-2.8-1.2-2.8-2.7C-5.5-42.6-4.3-43.8-2.8-43.8z
		"/>
	<path d="M-4-41.4l0.7,0.8l2-1.8l0.5,0.5l-2.6,2.3l-1.2-1.3L-4-41.4z"/>
</g>
</svg>
