<?xml version="1.0" encoding="utf-8"?>
<!-- Generator: Adobe Illustrator 24.3.0, SVG Export Plug-In . SVG Version: 6.00 Build 0)  -->
<svg version="1.1" id="Calque_1" xmlns="http://www.w3.org/2000/svg" xmlns:xlink="http://www.w3.org/1999/xlink" x="0px" y="0px"
	 viewBox="0 0 67 28" style="enable-background:new 0 0 67 28;" xml:space="preserve">
<style type="text/css">
	.st0{fill:#4B1D8F;fill-opacity:0;}
	.st1{fill:#4B1D8F;}
	.st2{fill-rule:evenodd;clip-rule:evenodd;fill:url(#SVGID_1_);}
</style>
<rect x="-258.6" y="-120.5" class="st0" width="94.9" height="39.7"/>
<path class="st1" d="M-230.8-97.8l0.7,3.1c-0.1,0.1-0.2,0.2-0.3,0.3c-0.1,0.1-0.5,0.2-1,0.4c-0.6,0.2-1.2,0.3-1.8,0.3
	c-1.1,0-2.1-0.4-2.9-1.1c-0.9-0.9-1.3-1.8-1.3-2.9v-5.5h-1.6v-3.1h1.6v-3.1h3.2v3.1h3.5v3.1h-3.5v4.4c0,0.5,0.1,0.8,0.4,1.1
	c0.3,0.3,0.5,0.4,0.8,0.4h0.4c0.4,0,0.7,0,1-0.1s0.5-0.2,0.6-0.3L-230.8-97.8z M-220.4-105.7l0.5-0.6h2.7v12.6h-3.2v-0.9
	c-1,0.6-2.1,0.9-3.2,0.9c-1.8,0-3.3-0.6-4.6-1.8s-1.9-2.7-1.9-4.4c0-1.7,0.6-3.2,1.9-4.4c1.3-1.2,2.8-1.8,4.6-1.8
	c1.2,0,2.2,0.3,3.2,0.9V-105.7z M-225.9-97.8c0.6,0.6,1.4,0.9,2.3,0.9c0.9,0,1.7-0.3,2.3-0.9c0.6-0.6,0.9-1.4,0.9-2.2
	c0-0.9-0.3-1.6-0.9-2.2c-0.6-0.6-1.4-0.9-2.3-0.9c-0.9,0-1.7,0.3-2.3,0.9c-0.6,0.6-0.9,1.4-0.9,2.2
	C-226.8-99.2-226.5-98.4-225.9-97.8z M-209.2-106.3c1.8,0,3.3,0.6,4.6,1.8c1.3,1.2,1.9,2.7,1.9,4.4c0,1.7-0.6,3.2-1.9,4.4
	c-1.3,1.2-2.8,1.8-4.6,1.8c-1.2,0-2.2-0.3-3.2-0.9v5.6h-3.2v-17.3h2.7l0.5,0.8v0.2C-211.4-106-210.4-106.3-209.2-106.3z
	 M-211.5-97.8c0.6,0.6,1.4,0.9,2.3,0.9c0.9,0,1.7-0.3,2.3-0.9c0.6-0.6,0.9-1.4,0.9-2.2c0-0.9-0.3-1.6-0.9-2.2
	c-0.6-0.6-1.4-0.9-2.3-0.9c-0.9,0-1.7,0.3-2.3,0.9c-0.6,0.6-0.9,1.4-0.9,2.2C-212.4-99.2-212.1-98.4-211.5-97.8z M-195.4-106.3
	c1.8,0,3.3,0.6,4.6,1.8c1.3,1.2,1.9,2.7,1.9,4.4c0,1.7-0.6,3.2-1.9,4.4c-1.3,1.3-2.8,2-4.6,2c-1.2,0-2.2-0.3-3.2-0.9v5.6h-3.2v-17.3
	h2.7l0.5,0.6v0.2C-197.6-106-196.5-106.3-195.4-106.3z M-197.7-97.8c0.6,0.6,1.4,0.9,2.3,0.9c0.9,0,1.7-0.3,2.3-0.9
	c0.6-0.6,0.9-1.4,0.9-2.2c0-0.9-0.3-1.6-0.9-2.2c-0.6-0.6-1.4-0.9-2.3-0.9c-0.9,0-1.7,0.3-2.3,0.9c-0.6,0.6-0.9,1.4-0.9,2.2
	C-198.6-99.2-198.3-98.4-197.7-97.8z M-184.7-93.7h-3.2v-12.6h3.2V-93.7z"/>
<linearGradient id="SVGID_1_" gradientUnits="userSpaceOnUse" x1="-188.9135" y1="940.2" x2="-183.4" y2="940.2" gradientTransform="matrix(1 0 0 1 0 -1050)">
	<stop  offset="0" style="stop-color:#FFAD03"/>
	<stop  offset="0.651" style="stop-color:#FE8005"/>
	<stop  offset="1" style="stop-color:#FD5308"/>
</linearGradient>
<path class="st2" d="M-186.2-112.5c1.5,0,2.8,1.2,2.8,2.7s-1.2,2.7-2.8,2.7c-1.5,0-2.8-1.2-2.8-2.7
	C-188.9-111.3-187.7-112.5-186.2-112.5z"/>
<path d="M-187.4-110.1l0.7,0.8l2-1.8l0.5,0.5l-2.6,2.3l-1.2-1.3L-187.4-110.1z"/>
</svg>
